<svg width="24" height="24" viewBox="0 0 24 24" fill="none" xmlns="http://www.w3.org/2000/svg">
<path d="M12 15.4999C12.4167 15.4999 12.7707 15.3539 13.062 15.0619C13.354 14.7706 13.5 14.4166 13.5 13.9999V12.9999H14.5C14.9167 12.9999 15.2707 12.8539 15.562 12.5619C15.854 12.2706 16 11.9166 16 11.4999C16 11.0832 15.854 10.7292 15.562 10.4379C15.2707 10.1459 14.9167 9.9999 14.5 9.9999H13.5V8.9999C13.5 8.58324 13.354 8.22924 13.062 7.9379C12.7707 7.6459 12.4167 7.4999 12 7.4999C11.5833 7.4999 11.2293 7.6459 10.938 7.9379C10.646 8.22924 10.5 8.58324 10.5 8.9999V9.9999H9.5C9.08333 9.9999 8.72933 10.1459 8.438 10.4379C8.146 10.7292 8 11.0832 8 11.4999C8 11.9166 8.146 12.2706 8.438 12.5619C8.72933 12.8539 9.08333 12.9999 9.5 12.9999H10.5V13.9999C10.5 14.4166 10.646 14.7706 10.938 15.0619C11.2293 15.3539 11.5833 15.4999 12 15.4999ZM12 21.9249H11.75C11.6667 21.9249 11.5917 21.9082 11.525 21.8749C9.34167 21.1916 7.54167 19.8372 6.125 17.8119C4.70833 15.7872 4 13.5499 4 11.0999V6.3749C4 5.95824 4.121 5.58324 4.363 5.2499C4.60433 4.91657 4.91667 4.6749 5.3 4.5249L11.3 2.2749C11.5333 2.19157 11.7667 2.1499 12 2.1499C12.2333 2.1499 12.4667 2.19157 12.7 2.2749L18.7 4.5249C19.0833 4.6749 19.396 4.91657 19.638 5.2499C19.8793 5.58324 20 5.95824 20 6.3749V11.0999C20 13.5499 19.2917 15.7872 17.875 17.8119C16.4583 19.8372 14.6583 21.1916 12.475 21.8749C12.3917 21.9082 12.2333 21.9249 12 21.9249V21.9249Z" fill="#0A1531"/>
</svg>
