<svg width="32" height="32" viewBox="0 0 32 32" fill="none" xmlns="http://www.w3.org/2000/svg">
<path d="M12.2398 12.25C12.0409 12.25 11.8501 12.329 11.7094 12.4697C11.5688 12.6103 11.4898 12.8011 11.4898 13C11.4898 13.1989 11.5688 13.3897 11.7094 13.5303C11.8501 13.671 12.0409 13.75 12.2398 13.75H14.2298V18.52C14.2298 18.7189 14.3088 18.9097 14.4494 19.0503C14.5901 19.191 14.7809 19.27 14.9798 19.27C15.1787 19.27 15.3694 19.191 15.5101 19.0503C15.6508 18.9097 15.7298 18.7189 15.7298 18.52V13.75H17.7098C17.9087 13.75 18.0994 13.671 18.2401 13.5303C18.3808 13.3897 18.4598 13.1989 18.4598 13C18.4598 12.8011 18.3808 12.6103 18.2401 12.4697C18.0994 12.329 17.9087 12.25 17.7098 12.25H12.2398V12.25ZM26.8468 12.405C26.9378 12.4752 27.0116 12.5653 27.0624 12.6685C27.1132 12.7716 27.1397 12.885 27.1398 13V18.52C27.1398 18.7189 27.0608 18.9097 26.9201 19.0503C26.7794 19.191 26.5887 19.27 26.3898 19.27C26.1909 19.27 26.0001 19.191 25.8594 19.0503C25.7188 18.9097 25.6398 18.7189 25.6398 18.52V14.81L23.9698 16.48C23.8997 16.5504 23.8163 16.6061 23.7244 16.6438C23.6325 16.6816 23.5341 16.7007 23.4348 16.7C23.3353 16.7008 23.2366 16.6818 23.1446 16.644C23.0526 16.6062 22.969 16.5505 22.8988 16.48L21.2398 14.815V18.52C21.2398 18.7189 21.1608 18.9097 21.0201 19.0503C20.8794 19.191 20.6887 19.27 20.4898 19.27C20.2909 19.27 20.1001 19.191 19.9594 19.0503C19.8188 18.9097 19.7398 18.7189 19.7398 18.52V13C19.7401 12.8517 19.7843 12.7069 19.8667 12.5836C19.949 12.4603 20.0659 12.3641 20.2028 12.307C20.3399 12.2497 20.4911 12.2348 20.6368 12.264C20.7826 12.2932 20.9163 12.3653 21.0208 12.471L23.4358 14.893L25.8598 12.47C25.9972 12.332 26.183 12.2531 26.3778 12.25H26.3898C26.5551 12.2497 26.7158 12.3042 26.8468 12.405V12.405ZM9.02777 12.879C8.80777 12.414 8.33777 12.307 8.07477 12.307C7.81277 12.307 7.34177 12.414 7.12177 12.879L4.67777 18.207C4.63667 18.2966 4.61361 18.3934 4.6099 18.4918C4.6062 18.5903 4.62193 18.6885 4.6562 18.7809C4.69046 18.8733 4.74259 18.9581 4.80961 19.0303C4.87662 19.1026 4.95721 19.1609 5.04677 19.202C5.13633 19.2431 5.23311 19.2662 5.33159 19.2699C5.43006 19.2736 5.5283 19.2578 5.62069 19.2236C5.71309 19.1893 5.79783 19.1372 5.87008 19.0702C5.94233 19.0032 6.00067 18.9226 6.04177 18.833L6.44677 17.95H9.70277L10.1078 18.833C10.1908 19.0139 10.3422 19.1544 10.5288 19.2236C10.7154 19.2928 10.9219 19.285 11.1028 19.202C11.2836 19.119 11.4241 18.9675 11.4933 18.7809C11.5625 18.5943 11.5548 18.3879 11.4718 18.207L9.03177 12.887L9.02777 12.879V12.879ZM9.01477 16.45H7.13477L8.07477 14.4L9.01477 16.45Z" fill="white"/>
<path d="M6 1C5.34339 1 4.69321 1.12933 4.08658 1.3806C3.47995 1.63188 2.92876 2.00017 2.46447 2.46447C1.52678 3.40215 1 4.67392 1 6V26C1 27.3261 1.52678 28.5979 2.46447 29.5355C2.92876 29.9998 3.47995 30.3681 4.08658 30.6194C4.69321 30.8707 5.34339 31 6 31H26C27.3261 31 28.5979 30.4732 29.5355 29.5355C30.4732 28.5979 31 27.3261 31 26V6C31 5.34339 30.8707 4.69321 30.6194 4.08658C30.3681 3.47995 29.9998 2.92876 29.5355 2.46447C29.0712 2.00017 28.52 1.63188 27.9134 1.3806C27.3068 1.12933 26.6566 1 26 1H6ZM3 6C3 5.20435 3.31607 4.44129 3.87868 3.87868C4.44129 3.31607 5.20435 3 6 3H26C26.7956 3 27.5587 3.31607 28.1213 3.87868C28.6839 4.44129 29 5.20435 29 6V26C29 26.7956 28.6839 27.5587 28.1213 28.1213C27.5587 28.6839 26.7956 29 26 29H6C5.20435 29 4.44129 28.6839 3.87868 28.1213C3.31607 27.5587 3 26.7956 3 26V6Z" fill="white"/>
</svg>
