<svg width="206" height="256" viewBox="0 0 206 256" fill="none" xmlns="http://www.w3.org/2000/svg">
<path d="M216 72H56C53.8783 72 51.8434 71.1571 50.3431 69.6569C48.8429 68.1566 48 66.1217 48 64C48 61.8783 48.8429 59.8434 50.3431 58.3431C51.8434 56.8429 53.8783 56 56 56H192C194.122 56 196.157 55.1571 197.657 53.6569C199.157 52.1566 200 50.1217 200 48C200 45.8783 199.157 43.8434 197.657 42.3431C196.157 40.8429 194.122 40 192 40H56C49.6429 40.0263 43.5537 42.5633 39.0585 47.0585C34.5633 51.5537 32.0263 57.6429 32 64V192C32.0263 198.357 34.5633 204.446 39.0585 208.941C43.5537 213.437 49.6429 215.974 56 216H216C220.243 216 224.313 214.314 227.314 211.314C230.314 208.313 232 204.243 232 200V88C232 83.7565 230.314 79.6869 227.314 76.6863C224.313 73.6857 220.243 72 216 72ZM180 156C177.627 156 175.307 155.296 173.333 153.978C171.36 152.659 169.822 150.785 168.913 148.592C168.005 146.399 167.768 143.987 168.231 141.659C168.694 139.331 169.836 137.193 171.515 135.515C173.193 133.836 175.331 132.694 177.659 132.231C179.987 131.768 182.399 132.005 184.592 132.913C186.785 133.822 188.659 135.36 189.978 137.333C191.296 139.307 192 141.627 192 144C192 147.183 190.736 150.235 188.485 152.485C186.235 154.736 183.183 156 180 156Z" fill="white"/>
</svg>
