<svg width="18" height="21" viewBox="0 0 18 21" fill="none" xmlns="http://www.w3.org/2000/svg">
<path d="M11.9421 3.88386C12.3202 3.44814 12.6084 2.94203 12.7903 2.3946C12.9722 1.84717 13.0442 1.26919 13.0021 0.693863C11.8415 0.78755 10.7641 1.33342 10.0021 2.21386C9.63721 2.63584 9.36069 3.12674 9.18892 3.65751C9.01715 4.18827 8.95363 4.74811 9.00211 5.30386C9.56825 5.30858 10.1279 5.18296 10.6377 4.93672C11.1475 4.69048 11.5938 4.33024 11.9421 3.88386ZM14.4621 11.3239C14.4688 10.5576 14.6707 9.80568 15.0486 9.13907C15.4265 8.47245 15.968 7.91312 16.6221 7.51386C16.2093 6.9191 15.6637 6.4287 15.0284 6.08154C14.3931 5.73438 13.6856 5.54002 12.9621 5.51386C11.4021 5.35386 9.96211 6.42386 9.13211 6.42386C8.30211 6.42386 7.13211 5.53386 5.83211 5.55386C4.98224 5.58186 4.15413 5.82964 3.42856 6.27305C2.70298 6.71646 2.10472 7.34034 1.69211 8.08386C-0.0678911 11.1439 1.24211 15.6939 3.00211 18.1639C3.80211 19.3739 4.80211 20.7439 6.12211 20.6939C7.44211 20.6439 7.87211 19.8739 9.40211 19.8739C10.9321 19.8739 11.4021 20.6939 12.7021 20.6639C14.0021 20.6339 14.9221 19.4239 15.7621 18.2139C16.3572 17.3354 16.822 16.3754 17.1421 15.3639C16.3496 15.0259 15.6734 14.4631 15.1971 13.7452C14.7209 13.0272 14.4653 12.1854 14.4621 11.3239Z" fill="black"/>
</svg>
