<svg width="22" height="22" viewBox="0 0 22 22" fill="none" xmlns="http://www.w3.org/2000/svg">
<path d="M21.2602 11.088C21.2602 10.1961 21.1879 9.5453 21.0312 8.87039H10.8472V12.8958H16.825C16.7045 13.8961 16.0537 15.4027 14.6074 16.415L14.5871 16.5497L17.8072 19.0442L18.0302 19.0665C20.0791 17.1743 21.2602 14.3902 21.2602 11.088Z" fill="#4285F4"/>
<path d="M10.8467 21.6939C13.7753 21.6939 16.2339 20.7296 18.0298 19.0665L14.6069 16.415C13.691 17.0537 12.4617 17.4997 10.8467 17.4997C7.97831 17.4997 5.54379 15.6075 4.67595 12.9922L4.54874 13.003L1.20052 15.5942L1.15674 15.716C2.94044 19.2593 6.6043 21.6939 10.8467 21.6939Z" fill="#34A853"/>
<path d="M4.67619 12.9923C4.4472 12.3174 4.31468 11.5942 4.31468 10.847C4.31468 10.0997 4.4472 9.37659 4.66414 8.70168L4.65808 8.55794L1.2679 5.92509L1.15698 5.97785C0.42183 7.44824 0 9.09941 0 10.847C0 12.5945 0.42183 14.2456 1.15698 15.716L4.67619 12.9923Z" fill="#FBBC05"/>
<path d="M10.8467 4.19412C12.8835 4.19412 14.2574 5.07393 15.0408 5.80916L18.1021 2.8202C16.222 1.07265 13.7753 0 10.8467 0C6.6043 0 2.94044 2.43452 1.15674 5.97782L4.6639 8.70165C5.54379 6.08634 7.97831 4.19412 10.8467 4.19412Z" fill="#EB4335"/>
</svg>
