<svg width="235" height="90" viewBox="0 0 235 90" fill="none" xmlns="http://www.w3.org/2000/svg">
<g filter="url(#filter0_d_241_606)">
<rect x="24" y="16" width="187" height="41.6939" rx="20.8469" fill="white" shape-rendering="crispEdges"/>
<path d="M69.2602 37.088C69.2602 36.1961 69.1879 35.5453 69.0312 34.8704H58.8472V38.8958H64.825C64.7045 39.8961 64.0537 41.4027 62.6074 42.415L62.5871 42.5497L65.8072 45.0442L66.0302 45.0665C68.0791 43.1743 69.2602 40.3902 69.2602 37.088" fill="#4285F4"/>
<path d="M58.8467 47.6939C61.7753 47.6939 64.2339 46.7296 66.0298 45.0665L62.6069 42.415C61.691 43.0537 60.4617 43.4997 58.8467 43.4997C55.9783 43.4997 53.5438 41.6075 52.6759 38.9922L52.5487 39.003L49.2005 41.5942L49.1567 41.716C50.9404 45.2593 54.6043 47.6939 58.8467 47.6939Z" fill="#34A853"/>
<path d="M52.6762 38.9923C52.4472 38.3174 52.3147 37.5942 52.3147 36.847C52.3147 36.0997 52.4472 35.3766 52.6641 34.7017L52.6581 34.5579L49.2679 31.9251L49.157 31.9779C48.4218 33.4482 48 35.0994 48 36.847C48 38.5945 48.4218 40.2456 49.157 41.716L52.6762 38.9923" fill="#FBBC05"/>
<path d="M58.8467 30.1941C60.8835 30.1941 62.2574 31.0739 63.0408 31.8092L66.1021 28.8202C64.222 27.0726 61.7753 26 58.8467 26C54.6043 26 50.9404 28.4345 49.1567 31.9778L52.6639 34.7016C53.5438 32.0863 55.9783 30.1941 58.8467 30.1941" fill="#EB4335"/>
<path d="M79.9798 40.9309C79.3958 40.9309 78.8678 40.8309 78.3958 40.6309C77.9318 40.4309 77.5638 40.1429 77.2918 39.7669C77.0198 39.3909 76.8798 38.9469 76.8718 38.4349H78.6718C78.6958 38.7789 78.8158 39.0509 79.0318 39.2509C79.2558 39.4509 79.5598 39.5509 79.9438 39.5509C80.3358 39.5509 80.6438 39.4589 80.8678 39.2749C81.0918 39.0829 81.2038 38.8349 81.2038 38.5309C81.2038 38.2829 81.1278 38.0789 80.9758 37.9189C80.8238 37.7589 80.6318 37.6349 80.3998 37.5469C80.1758 37.4509 79.8638 37.3469 79.4638 37.2349C78.9198 37.0749 78.4758 36.9189 78.1318 36.7669C77.7958 36.6069 77.5038 36.3709 77.2558 36.0589C77.0158 35.7389 76.8958 35.3149 76.8958 34.7869C76.8958 34.2909 77.0198 33.8589 77.2678 33.4909C77.5158 33.1229 77.8638 32.8429 78.3118 32.6509C78.7598 32.4509 79.2718 32.3509 79.8478 32.3509C80.7118 32.3509 81.4118 32.5629 81.9478 32.9869C82.4918 33.4029 82.7918 33.9869 82.8478 34.7389H80.9998C80.9838 34.4509 80.8598 34.2149 80.6278 34.0309C80.4038 33.8389 80.1038 33.7429 79.7278 33.7429C79.3998 33.7429 79.1358 33.8269 78.9358 33.9949C78.7438 34.1629 78.6478 34.4069 78.6478 34.7269C78.6478 34.9509 78.7198 35.1389 78.8638 35.2909C79.0158 35.4349 79.1998 35.5549 79.4158 35.6509C79.6398 35.7389 79.9518 35.8429 80.3518 35.9629C80.8958 36.1229 81.3398 36.2829 81.6838 36.4429C82.0278 36.6029 82.3238 36.8429 82.5718 37.1629C82.8198 37.4829 82.9438 37.9029 82.9438 38.4229C82.9438 38.8709 82.8278 39.2869 82.5958 39.6709C82.3638 40.0549 82.0238 40.3629 81.5758 40.5949C81.1278 40.8189 80.5958 40.9309 79.9798 40.9309ZM85.2523 33.4069C84.9563 33.4069 84.7083 33.3149 84.5083 33.1309C84.3163 32.9389 84.2203 32.7029 84.2203 32.4229C84.2203 32.1429 84.3163 31.9109 84.5083 31.7269C84.7083 31.5349 84.9563 31.4389 85.2523 31.4389C85.5483 31.4389 85.7923 31.5349 85.9843 31.7269C86.1843 31.9109 86.2843 32.1429 86.2843 32.4229C86.2843 32.7029 86.1843 32.9389 85.9843 33.1309C85.7923 33.3149 85.5483 33.4069 85.2523 33.4069ZM86.0803 34.1989V40.8469H84.4003V34.1989H86.0803ZM90.3441 34.0909C90.8401 34.0909 91.2761 34.1909 91.6521 34.3909C92.0281 34.5829 92.3241 34.8349 92.5401 35.1469V34.1989H94.2321V40.8949C94.2321 41.5109 94.1081 42.0589 93.8601 42.5389C93.6121 43.0269 93.2401 43.4109 92.7441 43.6909C92.2481 43.9789 91.6481 44.1229 90.9441 44.1229C90.0001 44.1229 89.2241 43.9029 88.6161 43.4629C88.0161 43.0229 87.6761 42.4229 87.5961 41.6629H89.2641C89.3521 41.9669 89.5401 42.2069 89.8281 42.3829C90.1241 42.5669 90.4801 42.6589 90.8961 42.6589C91.3841 42.6589 91.7801 42.5109 92.0841 42.2149C92.3881 41.9269 92.5401 41.4869 92.5401 40.8949V39.8629C92.3241 40.1749 92.0241 40.4349 91.6401 40.6429C91.2641 40.8509 90.8321 40.9549 90.3441 40.9549C89.7841 40.9549 89.2721 40.8109 88.8081 40.5229C88.3441 40.2349 87.9761 39.8309 87.7041 39.3109C87.4401 38.7829 87.3081 38.1789 87.3081 37.4989C87.3081 36.8269 87.4401 36.2309 87.7041 35.7109C87.9761 35.1909 88.3401 34.7909 88.7961 34.5109C89.2601 34.2309 89.7761 34.0909 90.3441 34.0909ZM92.5401 37.5229C92.5401 37.1149 92.4601 36.7669 92.3001 36.4789C92.1401 36.1829 91.9241 35.9589 91.6521 35.8069C91.3801 35.6469 91.0881 35.5669 90.7761 35.5669C90.4641 35.5669 90.1761 35.6429 89.9121 35.7949C89.6481 35.9469 89.4321 36.1709 89.2641 36.4669C89.1041 36.7549 89.0241 37.0989 89.0241 37.4989C89.0241 37.8989 89.1041 38.2509 89.2641 38.5549C89.4321 38.8509 89.6481 39.0789 89.9121 39.2389C90.1841 39.3989 90.4721 39.4789 90.7761 39.4789C91.0881 39.4789 91.3801 39.4029 91.6521 39.2509C91.9241 39.0909 92.1401 38.8669 92.3001 38.5789C92.4601 38.2829 92.5401 37.9309 92.5401 37.5229ZM99.5569 34.1029C100.349 34.1029 100.989 34.3549 101.477 34.8589C101.965 35.3549 102.209 36.0509 102.209 36.9469V40.8469H100.529V37.1749C100.529 36.6469 100.397 36.2429 100.133 35.9629C99.8689 35.6749 99.5089 35.5309 99.0529 35.5309C98.5889 35.5309 98.2209 35.6749 97.9489 35.9629C97.6849 36.2429 97.5529 36.6469 97.5529 37.1749V40.8469H95.8729V34.1989H97.5529V35.0269C97.7769 34.7389 98.0609 34.5149 98.4049 34.3549C98.7569 34.1869 99.1409 34.1029 99.5569 34.1029ZM112.942 34.1989V40.8469H111.25V40.0069C111.034 40.2949 110.75 40.5229 110.398 40.6909C110.054 40.8509 109.678 40.9309 109.27 40.9309C108.75 40.9309 108.29 40.8229 107.89 40.6069C107.49 40.3829 107.174 40.0589 106.942 39.6349C106.718 39.2029 106.606 38.6909 106.606 38.0989V34.1989H108.286V37.8589C108.286 38.3869 108.418 38.7949 108.682 39.0829C108.946 39.3629 109.306 39.5029 109.762 39.5029C110.226 39.5029 110.59 39.3629 110.854 39.0829C111.118 38.7949 111.25 38.3869 111.25 37.8589V34.1989H112.942ZM116.279 35.1589C116.495 34.8549 116.791 34.6029 117.167 34.4029C117.551 34.1949 117.987 34.0909 118.475 34.0909C119.043 34.0909 119.555 34.2309 120.011 34.5109C120.475 34.7909 120.839 35.1909 121.103 35.7109C121.375 36.2229 121.511 36.8189 121.511 37.4989C121.511 38.1789 121.375 38.7829 121.103 39.3109C120.839 39.8309 120.475 40.2349 120.011 40.5229C119.555 40.8109 119.043 40.9549 118.475 40.9549C117.987 40.9549 117.555 40.8549 117.179 40.6549C116.811 40.4549 116.511 40.2029 116.279 39.8989V44.0149H114.599V34.1989H116.279V35.1589ZM119.795 37.4989C119.795 37.0989 119.711 36.7549 119.543 36.4669C119.383 36.1709 119.167 35.9469 118.895 35.7949C118.631 35.6429 118.343 35.5669 118.031 35.5669C117.727 35.5669 117.439 35.6469 117.167 35.8069C116.903 35.9589 116.687 36.1829 116.519 36.4789C116.359 36.7749 116.279 37.1229 116.279 37.5229C116.279 37.9229 116.359 38.2709 116.519 38.5669C116.687 38.8629 116.903 39.0909 117.167 39.2509C117.439 39.4029 117.727 39.4789 118.031 39.4789C118.343 39.4789 118.631 39.3989 118.895 39.2389C119.167 39.0789 119.383 38.8509 119.543 38.5549C119.711 38.2589 119.795 37.9069 119.795 37.4989ZM134.808 34.1989L132.864 40.8469H131.052L129.84 36.2029L128.628 40.8469H126.804L124.848 34.1989H126.552L127.728 39.2629L129 34.1989H130.776L132.024 39.2509L133.2 34.1989H134.808ZM136.569 33.4069C136.273 33.4069 136.025 33.3149 135.825 33.1309C135.633 32.9389 135.537 32.7029 135.537 32.4229C135.537 32.1429 135.633 31.9109 135.825 31.7269C136.025 31.5349 136.273 31.4389 136.569 31.4389C136.865 31.4389 137.109 31.5349 137.301 31.7269C137.501 31.9109 137.601 32.1429 137.601 32.4229C137.601 32.7029 137.501 32.9389 137.301 33.1309C137.109 33.3149 136.865 33.4069 136.569 33.4069ZM137.397 34.1989V40.8469H135.717V34.1989H137.397ZM141.013 35.5789V38.7949C141.013 39.0189 141.065 39.1829 141.169 39.2869C141.281 39.3829 141.465 39.4309 141.721 39.4309H142.501V40.8469H141.445C140.029 40.8469 139.321 40.1589 139.321 38.7829V35.5789H138.529V34.1989H139.321V32.5549H141.013V34.1989H142.501V35.5789H141.013ZM147.453 34.1029C147.957 34.1029 148.405 34.2149 148.797 34.4389C149.189 34.6549 149.493 34.9789 149.709 35.4109C149.933 35.8349 150.045 36.3469 150.045 36.9469V40.8469H148.365V37.1749C148.365 36.6469 148.233 36.2429 147.969 35.9629C147.705 35.6749 147.345 35.5309 146.889 35.5309C146.425 35.5309 146.057 35.6749 145.785 35.9629C145.521 36.2429 145.389 36.6469 145.389 37.1749V40.8469H143.709V31.9669H145.389V35.0269C145.605 34.7389 145.893 34.5149 146.253 34.3549C146.613 34.1869 147.013 34.1029 147.453 34.1029ZM160.334 34.9909C160.142 34.6389 159.878 34.3709 159.542 34.1869C159.206 34.0029 158.814 33.9109 158.366 33.9109C157.87 33.9109 157.43 34.0229 157.046 34.2469C156.662 34.4709 156.362 34.7909 156.146 35.2069C155.93 35.6229 155.822 36.1029 155.822 36.6469C155.822 37.2069 155.93 37.6949 156.146 38.1109C156.37 38.5269 156.678 38.8469 157.07 39.0709C157.462 39.2949 157.918 39.4069 158.438 39.4069C159.078 39.4069 159.602 39.2389 160.01 38.9029C160.418 38.5589 160.686 38.0829 160.814 37.4749H157.934V36.1909H162.47V37.6549C162.358 38.2389 162.118 38.7789 161.75 39.2749C161.382 39.7709 160.906 40.1709 160.322 40.4749C159.746 40.7709 159.098 40.9189 158.378 40.9189C157.57 40.9189 156.838 40.7389 156.182 40.3789C155.534 40.0109 155.022 39.5029 154.646 38.8549C154.278 38.2069 154.094 37.4709 154.094 36.6469C154.094 35.8229 154.278 35.0869 154.646 34.4389C155.022 33.7829 155.534 33.2749 156.182 32.9149C156.838 32.5469 157.566 32.3629 158.366 32.3629C159.31 32.3629 160.13 32.5949 160.826 33.0589C161.522 33.5149 162.002 34.1589 162.266 34.9909H160.334ZM166.665 40.9549C166.025 40.9549 165.449 40.8149 164.937 40.5349C164.425 40.2469 164.021 39.8429 163.725 39.3229C163.437 38.8029 163.293 38.2029 163.293 37.5229C163.293 36.8429 163.441 36.2429 163.737 35.7229C164.041 35.2029 164.453 34.8029 164.973 34.5229C165.493 34.2349 166.073 34.0909 166.713 34.0909C167.353 34.0909 167.933 34.2349 168.453 34.5229C168.973 34.8029 169.381 35.2029 169.677 35.7229C169.981 36.2429 170.133 36.8429 170.133 37.5229C170.133 38.2029 169.977 38.8029 169.665 39.3229C169.361 39.8429 168.945 40.2469 168.417 40.5349C167.897 40.8149 167.313 40.9549 166.665 40.9549ZM166.665 39.4909C166.969 39.4909 167.253 39.4189 167.517 39.2749C167.789 39.1229 168.005 38.8989 168.165 38.6029C168.325 38.3069 168.405 37.9469 168.405 37.5229C168.405 36.8909 168.237 36.4069 167.901 36.0709C167.573 35.7269 167.169 35.5549 166.689 35.5549C166.209 35.5549 165.805 35.7269 165.477 36.0709C165.157 36.4069 164.997 36.8909 164.997 37.5229C164.997 38.1549 165.153 38.6429 165.465 38.9869C165.785 39.3229 166.185 39.4909 166.665 39.4909ZM174.317 40.9549C173.677 40.9549 173.101 40.8149 172.589 40.5349C172.077 40.2469 171.673 39.8429 171.377 39.3229C171.089 38.8029 170.945 38.2029 170.945 37.5229C170.945 36.8429 171.093 36.2429 171.389 35.7229C171.693 35.2029 172.105 34.8029 172.625 34.5229C173.145 34.2349 173.725 34.0909 174.365 34.0909C175.005 34.0909 175.585 34.2349 176.105 34.5229C176.625 34.8029 177.033 35.2029 177.329 35.7229C177.633 36.2429 177.785 36.8429 177.785 37.5229C177.785 38.2029 177.629 38.8029 177.317 39.3229C177.013 39.8429 176.597 40.2469 176.069 40.5349C175.549 40.8149 174.965 40.9549 174.317 40.9549ZM174.317 39.4909C174.621 39.4909 174.905 39.4189 175.169 39.2749C175.441 39.1229 175.657 38.8989 175.817 38.6029C175.977 38.3069 176.057 37.9469 176.057 37.5229C176.057 36.8909 175.889 36.4069 175.553 36.0709C175.225 35.7269 174.821 35.5549 174.341 35.5549C173.861 35.5549 173.457 35.7269 173.129 36.0709C172.809 36.4069 172.649 36.8909 172.649 37.5229C172.649 38.1549 172.805 38.6429 173.117 38.9869C173.437 39.3229 173.837 39.4909 174.317 39.4909ZM181.621 34.0909C182.117 34.0909 182.553 34.1909 182.929 34.3909C183.305 34.5829 183.601 34.8349 183.817 35.1469V34.1989H185.509V40.8949C185.509 41.5109 185.385 42.0589 185.137 42.5389C184.889 43.0269 184.517 43.4109 184.021 43.6909C183.525 43.9789 182.925 44.1229 182.221 44.1229C181.277 44.1229 180.501 43.9029 179.893 43.4629C179.293 43.0229 178.953 42.4229 178.873 41.6629H180.541C180.629 41.9669 180.817 42.2069 181.105 42.3829C181.401 42.5669 181.757 42.6589 182.173 42.6589C182.661 42.6589 183.057 42.5109 183.361 42.2149C183.665 41.9269 183.817 41.4869 183.817 40.8949V39.8629C183.601 40.1749 183.301 40.4349 182.917 40.6429C182.541 40.8509 182.109 40.9549 181.621 40.9549C181.061 40.9549 180.549 40.8109 180.085 40.5229C179.621 40.2349 179.253 39.8309 178.981 39.3109C178.717 38.7829 178.585 38.1789 178.585 37.4989C178.585 36.8269 178.717 36.2309 178.981 35.7109C179.253 35.1909 179.617 34.7909 180.073 34.5109C180.537 34.2309 181.053 34.0909 181.621 34.0909ZM183.817 37.5229C183.817 37.1149 183.737 36.7669 183.577 36.4789C183.417 36.1829 183.201 35.9589 182.929 35.8069C182.657 35.6469 182.365 35.5669 182.053 35.5669C181.741 35.5669 181.453 35.6429 181.189 35.7949C180.925 35.9469 180.709 36.1709 180.541 36.4669C180.381 36.7549 180.301 37.0989 180.301 37.4989C180.301 37.8989 180.381 38.2509 180.541 38.5549C180.709 38.8509 180.925 39.0789 181.189 39.2389C181.461 39.3989 181.749 39.4789 182.053 39.4789C182.365 39.4789 182.657 39.4029 182.929 39.2509C183.201 39.0909 183.417 38.8669 183.577 38.5789C183.737 38.2829 183.817 37.9309 183.817 37.5229ZM188.83 31.9669V40.8469H187.15V31.9669H188.83ZM196.67 37.3789C196.67 37.6189 196.654 37.8349 196.622 38.0269H191.762C191.802 38.5069 191.97 38.8829 192.266 39.1549C192.562 39.4269 192.926 39.5629 193.358 39.5629C193.982 39.5629 194.426 39.2949 194.69 38.7589H196.502C196.31 39.3989 195.942 39.9269 195.398 40.3429C194.854 40.7509 194.186 40.9549 193.394 40.9549C192.754 40.9549 192.178 40.8149 191.666 40.5349C191.162 40.2469 190.766 39.8429 190.478 39.3229C190.198 38.8029 190.058 38.2029 190.058 37.5229C190.058 36.8349 190.198 36.2309 190.478 35.7109C190.758 35.1909 191.15 34.7909 191.654 34.5109C192.158 34.2309 192.738 34.0909 193.394 34.0909C194.026 34.0909 194.59 34.2269 195.086 34.4989C195.59 34.7709 195.978 35.1589 196.25 35.6629C196.53 36.1589 196.67 36.7309 196.67 37.3789ZM194.93 36.8989C194.922 36.4669 194.766 36.1229 194.462 35.8669C194.158 35.6029 193.786 35.4709 193.346 35.4709C192.93 35.4709 192.578 35.5989 192.29 35.8549C192.01 36.1029 191.838 36.4509 191.774 36.8989H194.93Z" fill="#575964"/>
</g>
<defs>
<filter id="filter0_d_241_606" x="0" y="0" width="235" height="89.6939" filterUnits="userSpaceOnUse" color-interpolation-filters="sRGB">
<feFlood flood-opacity="0" result="BackgroundImageFix"/>
<feColorMatrix in="SourceAlpha" type="matrix" values="0 0 0 0 0 0 0 0 0 0 0 0 0 0 0 0 0 0 127 0" result="hardAlpha"/>
<feOffset dy="8"/>
<feGaussianBlur stdDeviation="12"/>
<feComposite in2="hardAlpha" operator="out"/>
<feColorMatrix type="matrix" values="0 0 0 0 0 0 0 0 0 0 0 0 0 0 0 0 0 0 0.15 0"/>
<feBlend mode="normal" in2="BackgroundImageFix" result="effect1_dropShadow_241_606"/>
<feBlend mode="normal" in="SourceGraphic" in2="effect1_dropShadow_241_606" result="shape"/>
</filter>
</defs>
</svg>
