<svg width="341" height="78" viewBox="0 0 341 78" fill="none" xmlns="http://www.w3.org/2000/svg">
<path d="M50.8211 22.14C49.8478 22.14 48.9678 21.9733 48.1811 21.64C47.4078 21.3067 46.7944 20.8267 46.3411 20.2C45.8878 19.5733 45.6544 18.8333 45.6411 17.98H48.6411C48.6811 18.5533 48.8811 19.0067 49.2411 19.34C49.6144 19.6733 50.1211 19.84 50.7611 19.84C51.4144 19.84 51.9278 19.6867 52.3011 19.38C52.6744 19.06 52.8611 18.6467 52.8611 18.14C52.8611 17.7267 52.7344 17.3867 52.4811 17.12C52.2278 16.8533 51.9078 16.6467 51.5211 16.5C51.1478 16.34 50.6278 16.1667 49.9611 15.98C49.0544 15.7133 48.3144 15.4533 47.7411 15.2C47.1811 14.9333 46.6944 14.54 46.2811 14.02C45.8811 13.4867 45.6811 12.78 45.6811 11.9C45.6811 11.0733 45.8878 10.3533 46.3011 9.74C46.7144 9.12667 47.2944 8.66 48.0411 8.34C48.7878 8.00667 49.6411 7.84 50.6011 7.84C52.0411 7.84 53.2078 8.19333 54.1011 8.9C55.0078 9.59333 55.5078 10.5667 55.6011 11.82H52.5211C52.4944 11.34 52.2878 10.9467 51.9011 10.64C51.5278 10.32 51.0278 10.16 50.4011 10.16C49.8544 10.16 49.4144 10.3 49.0811 10.58C48.7611 10.86 48.6011 11.2667 48.6011 11.8C48.6011 12.1733 48.7211 12.4867 48.9611 12.74C49.2144 12.98 49.5211 13.18 49.8811 13.34C50.2544 13.4867 50.7744 13.66 51.4411 13.86C52.3478 14.1267 53.0878 14.3933 53.6611 14.66C54.2344 14.9267 54.7278 15.3267 55.1411 15.86C55.5544 16.3933 55.7611 17.0933 55.7611 17.96C55.7611 18.7067 55.5678 19.4 55.1811 20.04C54.7944 20.68 54.2278 21.1933 53.4811 21.58C52.7344 21.9533 51.8478 22.14 50.8211 22.14ZM68.3686 12.36C68.3686 13.1067 68.1886 13.8067 67.8286 14.46C67.4819 15.1133 66.9286 15.64 66.1686 16.04C65.4219 16.44 64.4753 16.64 63.3286 16.64H60.9886V22H58.1886V8.04H63.3286C64.4086 8.04 65.3286 8.22667 66.0886 8.6C66.8486 8.97333 67.4153 9.48667 67.7886 10.14C68.1753 10.7933 68.3686 11.5333 68.3686 12.36ZM63.2086 14.38C63.9819 14.38 64.5553 14.2067 64.9286 13.86C65.3019 13.5 65.4886 13 65.4886 12.36C65.4886 11 64.7286 10.32 63.2086 10.32H60.9886V14.38H63.2086ZM73.1566 10.3V13.8H77.8566V16.02H73.1566V19.72H78.4566V22H70.3566V8.02H78.4566V10.3H73.1566ZM80.3211 15C80.3211 13.6267 80.6278 12.4 81.2411 11.32C81.8678 10.2267 82.7144 9.38 83.7811 8.78C84.8611 8.16667 86.0678 7.86 87.4011 7.86C88.9611 7.86 90.3278 8.26 91.5011 9.06C92.6744 9.86 93.4944 10.9667 93.9611 12.38H90.7411C90.4211 11.7133 89.9678 11.2133 89.3811 10.88C88.8078 10.5467 88.1411 10.38 87.3811 10.38C86.5678 10.38 85.8411 10.5733 85.2011 10.96C84.5744 11.3333 84.0811 11.8667 83.7211 12.56C83.3744 13.2533 83.2011 14.0667 83.2011 15C83.2011 15.92 83.3744 16.7333 83.7211 17.44C84.0811 18.1333 84.5744 18.6733 85.2011 19.06C85.8411 19.4333 86.5678 19.62 87.3811 19.62C88.1411 19.62 88.8078 19.4533 89.3811 19.12C89.9678 18.7733 90.4211 18.2667 90.7411 17.6H93.9611C93.4944 19.0267 92.6744 20.14 91.5011 20.94C90.3411 21.7267 88.9744 22.12 87.4011 22.12C86.0678 22.12 84.8611 21.82 83.7811 21.22C82.7144 20.6067 81.8678 19.76 81.2411 18.68C80.6278 17.6 80.3211 16.3733 80.3211 15ZM99.1527 8.04V22H96.3527V8.04H99.1527ZM110.479 19.34H104.919L103.999 22H101.059L106.079 8.02H109.339L114.359 22H111.399L110.479 19.34ZM109.719 17.1L107.699 11.26L105.679 17.1H109.719ZM119.035 19.78H123.635V22H116.235V8.04H119.035V19.78ZM138.101 14.84C138.887 14.9867 139.534 15.38 140.041 16.02C140.547 16.66 140.801 17.3933 140.801 18.22C140.801 18.9667 140.614 19.6267 140.241 20.2C139.881 20.76 139.354 21.2 138.661 21.52C137.967 21.84 137.147 22 136.201 22H130.181V8.04H135.941C136.887 8.04 137.701 8.19333 138.381 8.5C139.074 8.80667 139.594 9.23333 139.941 9.78C140.301 10.3267 140.481 10.9467 140.481 11.64C140.481 12.4533 140.261 13.1333 139.821 13.68C139.394 14.2267 138.821 14.6133 138.101 14.84ZM132.981 13.8H135.541C136.207 13.8 136.721 13.6533 137.081 13.36C137.441 13.0533 137.621 12.62 137.621 12.06C137.621 11.5 137.441 11.0667 137.081 10.76C136.721 10.4533 136.207 10.3 135.541 10.3H132.981V13.8ZM135.801 19.72C136.481 19.72 137.007 19.56 137.381 19.24C137.767 18.92 137.961 18.4667 137.961 17.88C137.961 17.28 137.761 16.8133 137.361 16.48C136.961 16.1333 136.421 15.96 135.741 15.96H132.981V19.72H135.801ZM145.832 10.3V13.8H150.532V16.02H145.832V19.72H151.132V22H143.032V8.02H151.132V10.3H145.832ZM165.617 22H162.817L156.477 12.42V22H153.677V8.02H156.477L162.817 17.62V8.02H165.617V22ZM171.184 10.3V13.8H175.884V16.02H171.184V19.72H176.484V22H168.384V8.02H176.484V10.3H171.184ZM187.648 8.04V10.3H181.828V13.88H186.288V16.1H181.828V22H179.028V8.04H187.648ZM192.434 8.04V22H189.634V8.04H192.434ZM204.7 8.04V10.3H200.98V22H198.18V10.3H194.46V8.04H204.7ZM220.129 8.04V10.3H214.309V13.88H218.769V16.1H214.309V22H211.509V8.04H220.129ZM228.594 22.14C227.288 22.14 226.088 21.8333 224.994 21.22C223.901 20.6067 223.034 19.76 222.394 18.68C221.754 17.5867 221.434 16.3533 221.434 14.98C221.434 13.62 221.754 12.4 222.394 11.32C223.034 10.2267 223.901 9.37333 224.994 8.76C226.088 8.14667 227.288 7.84 228.594 7.84C229.914 7.84 231.114 8.14667 232.194 8.76C233.288 9.37333 234.148 10.2267 234.774 11.32C235.414 12.4 235.734 13.62 235.734 14.98C235.734 16.3533 235.414 17.5867 234.774 18.68C234.148 19.76 233.288 20.6067 232.194 21.22C231.101 21.8333 229.901 22.14 228.594 22.14ZM228.594 19.64C229.434 19.64 230.174 19.4533 230.814 19.08C231.454 18.6933 231.954 18.1467 232.314 17.44C232.674 16.7333 232.854 15.9133 232.854 14.98C232.854 14.0467 232.674 13.2333 232.314 12.54C231.954 11.8333 231.454 11.2933 230.814 10.92C230.174 10.5467 229.434 10.36 228.594 10.36C227.754 10.36 227.008 10.5467 226.354 10.92C225.714 11.2933 225.214 11.8333 224.854 12.54C224.494 13.2333 224.314 14.0467 224.314 14.98C224.314 15.9133 224.494 16.7333 224.854 17.44C225.214 18.1467 225.714 18.6933 226.354 19.08C227.008 19.4533 227.754 19.64 228.594 19.64ZM245.018 22L241.938 16.56H240.618V22H237.818V8.04H243.058C244.138 8.04 245.058 8.23333 245.818 8.62C246.578 8.99333 247.144 9.50667 247.518 10.16C247.904 10.8 248.098 11.52 248.098 12.32C248.098 13.24 247.831 14.0733 247.298 14.82C246.764 15.5533 245.971 16.06 244.918 16.34L248.258 22H245.018ZM240.618 14.46H242.958C243.718 14.46 244.284 14.28 244.658 13.92C245.031 13.5467 245.218 13.0333 245.218 12.38C245.218 11.74 245.031 11.2467 244.658 10.9C244.284 10.54 243.718 10.36 242.958 10.36H240.618V14.46ZM266.496 8.04L261.776 17.14V22H258.976V17.14L254.236 8.04H257.396L260.396 14.42L263.376 8.04H266.496ZM274.59 22.14C273.284 22.14 272.084 21.8333 270.99 21.22C269.897 20.6067 269.03 19.76 268.39 18.68C267.75 17.5867 267.43 16.3533 267.43 14.98C267.43 13.62 267.75 12.4 268.39 11.32C269.03 10.2267 269.897 9.37333 270.99 8.76C272.084 8.14667 273.284 7.84 274.59 7.84C275.91 7.84 277.11 8.14667 278.19 8.76C279.284 9.37333 280.144 10.2267 280.77 11.32C281.41 12.4 281.73 13.62 281.73 14.98C281.73 16.3533 281.41 17.5867 280.77 18.68C280.144 19.76 279.284 20.6067 278.19 21.22C277.097 21.8333 275.897 22.14 274.59 22.14ZM274.59 19.64C275.43 19.64 276.17 19.4533 276.81 19.08C277.45 18.6933 277.95 18.1467 278.31 17.44C278.67 16.7333 278.85 15.9133 278.85 14.98C278.85 14.0467 278.67 13.2333 278.31 12.54C277.95 11.8333 277.45 11.2933 276.81 10.92C276.17 10.5467 275.43 10.36 274.59 10.36C273.75 10.36 273.004 10.5467 272.35 10.92C271.71 11.2933 271.21 11.8333 270.85 12.54C270.49 13.2333 270.31 14.0467 270.31 14.98C270.31 15.9133 270.49 16.7333 270.85 17.44C271.21 18.1467 271.71 18.6933 272.35 19.08C273.004 19.4533 273.75 19.64 274.59 19.64ZM286.574 8.04V16.68C286.574 17.6267 286.82 18.3533 287.314 18.86C287.807 19.3533 288.5 19.6 289.394 19.6C290.3 19.6 291 19.3533 291.494 18.86C291.987 18.3533 292.234 17.6267 292.234 16.68V8.04H295.054V16.66C295.054 17.8467 294.794 18.8533 294.274 19.68C293.767 20.4933 293.08 21.1067 292.214 21.52C291.36 21.9333 290.407 22.14 289.354 22.14C288.314 22.14 287.367 21.9333 286.514 21.52C285.674 21.1067 285.007 20.4933 284.514 19.68C284.02 18.8533 283.774 17.8467 283.774 16.66V8.04H286.574Z" fill="#5A4FCF"/>
<path d="M28.0677 47.456L22.6077 67H17.9877L14.3197 53.084L10.4837 67L5.89172 67.028L0.627719 47.456H4.82772L8.27172 62.632L12.2477 47.456H16.6157L20.3677 62.548L23.8397 47.456H28.0677ZM39.3633 51.264C40.5393 51.264 41.5846 51.5253 42.4993 52.048C43.414 52.552 44.1233 53.308 44.6273 54.316C45.15 55.3053 45.4113 56.5 45.4113 57.9V67H41.4913V58.432C41.4913 57.2 41.1833 56.2573 40.5673 55.604C39.9513 54.932 39.1113 54.596 38.0473 54.596C36.9646 54.596 36.106 54.932 35.4713 55.604C34.8553 56.2573 34.5473 57.2 34.5473 58.432V67H30.6273V46.28H34.5473V53.42C35.0513 52.748 35.7233 52.2253 36.5633 51.852C37.4033 51.46 38.3366 51.264 39.3633 51.264ZM63.979 51.488L54.375 74.336H50.203L53.563 66.608L47.347 51.488H51.743L55.747 62.324L59.807 51.488H63.979ZM79.512 67.196C78.1494 67.196 76.9174 66.9627 75.816 66.496C74.7334 66.0293 73.8747 65.3573 73.24 64.48C72.6054 63.6027 72.2787 62.5667 72.26 61.372H76.46C76.516 62.1747 76.796 62.8093 77.3 63.276C77.8227 63.7427 78.532 63.976 79.428 63.976C80.3427 63.976 81.0614 63.7613 81.584 63.332C82.1067 62.884 82.368 62.3053 82.368 61.596C82.368 61.0173 82.1907 60.5413 81.836 60.168C81.4814 59.7947 81.0334 59.5053 80.492 59.3C79.9694 59.076 79.2414 58.8333 78.308 58.572C77.0387 58.1987 76.0027 57.8347 75.2 57.48C74.416 57.1067 73.7347 56.556 73.156 55.828C72.596 55.0813 72.316 54.092 72.316 52.86C72.316 51.7027 72.6054 50.6947 73.184 49.836C73.7627 48.9773 74.5747 48.324 75.62 47.876C76.6654 47.4093 77.86 47.176 79.204 47.176C81.22 47.176 82.8534 47.6707 84.104 48.66C85.3734 49.6307 86.0734 50.9933 86.204 52.748H81.892C81.8547 52.076 81.5654 51.5253 81.024 51.096C80.5014 50.648 79.8014 50.424 78.924 50.424C78.1587 50.424 77.5427 50.62 77.076 51.012C76.628 51.404 76.404 51.9733 76.404 52.72C76.404 53.2427 76.572 53.6813 76.908 54.036C77.2627 54.372 77.692 54.652 78.196 54.876C78.7187 55.0813 79.4467 55.324 80.38 55.604C81.6494 55.9773 82.6854 56.3507 83.488 56.724C84.2907 57.0973 84.9814 57.6573 85.56 58.404C86.1387 59.1507 86.428 60.1307 86.428 61.344C86.428 62.3893 86.1574 63.36 85.616 64.256C85.0747 65.152 84.2814 65.8707 83.236 66.412C82.1907 66.9347 80.9494 67.196 79.512 67.196ZM98.5625 51.264C99.7385 51.264 100.784 51.5253 101.699 52.048C102.613 52.552 103.323 53.308 103.827 54.316C104.349 55.3053 104.611 56.5 104.611 57.9V67H100.691V58.432C100.691 57.2 100.383 56.2573 99.7665 55.604C99.1505 54.932 98.3105 54.596 97.2465 54.596C96.1639 54.596 95.3052 54.932 94.6705 55.604C94.0545 56.2573 93.7465 57.2 93.7465 58.432V67H89.8265V46.28H93.7465V53.42C94.2505 52.748 94.9225 52.2253 95.7625 51.852C96.6025 51.46 97.5359 51.264 98.5625 51.264ZM115.226 67.252C113.733 67.252 112.389 66.9253 111.194 66.272C110 65.6 109.057 64.6573 108.366 63.444C107.694 62.2307 107.358 60.8307 107.358 59.244C107.358 57.6573 107.704 56.2573 108.394 55.044C109.104 53.8307 110.065 52.8973 111.278 52.244C112.492 51.572 113.845 51.236 115.338 51.236C116.832 51.236 118.185 51.572 119.398 52.244C120.612 52.8973 121.564 53.8307 122.254 55.044C122.964 56.2573 123.318 57.6573 123.318 59.244C123.318 60.8307 122.954 62.2307 122.226 63.444C121.517 64.6573 120.546 65.6 119.314 66.272C118.101 66.9253 116.738 67.252 115.226 67.252ZM115.226 63.836C115.936 63.836 116.598 63.668 117.214 63.332C117.849 62.9773 118.353 62.4547 118.726 61.764C119.1 61.0733 119.286 60.2333 119.286 59.244C119.286 57.7693 118.894 56.64 118.11 55.856C117.345 55.0533 116.402 54.652 115.282 54.652C114.162 54.652 113.22 55.0533 112.454 55.856C111.708 56.64 111.334 57.7693 111.334 59.244C111.334 60.7187 111.698 61.8573 112.426 62.66C113.173 63.444 114.106 63.836 115.226 63.836ZM140.838 51.488V67H136.89V65.04C136.386 65.712 135.723 66.244 134.902 66.636C134.099 67.0093 133.222 67.196 132.27 67.196C131.056 67.196 129.983 66.944 129.05 66.44C128.116 65.9173 127.379 65.1613 126.838 64.172C126.315 63.164 126.054 61.9693 126.054 60.588V51.488H129.974V60.028C129.974 61.26 130.282 62.212 130.898 62.884C131.514 63.5373 132.354 63.864 133.418 63.864C134.5 63.864 135.35 63.5373 135.966 62.884C136.582 62.212 136.89 61.26 136.89 60.028V51.488H140.838ZM148.625 46.28V67H144.705V46.28H148.625ZM151.49 59.188C151.49 57.62 151.798 56.2293 152.414 55.016C153.049 53.8027 153.908 52.8693 154.99 52.216C156.073 51.5627 157.277 51.236 158.602 51.236C159.61 51.236 160.572 51.46 161.486 51.908C162.401 52.3373 163.129 52.916 163.67 53.644V46.28H167.646V67H163.67V64.704C163.185 65.4693 162.504 66.0853 161.626 66.552C160.749 67.0187 159.732 67.252 158.574 67.252C157.268 67.252 156.073 66.916 154.99 66.244C153.908 65.572 153.049 64.6293 152.414 63.416C151.798 62.184 151.49 60.7747 151.49 59.188ZM163.698 59.244C163.698 58.292 163.512 57.48 163.138 56.808C162.765 56.1173 162.261 55.5947 161.626 55.24C160.992 54.8667 160.31 54.68 159.582 54.68C158.854 54.68 158.182 54.8573 157.566 55.212C156.95 55.5667 156.446 56.0893 156.054 56.78C155.681 57.452 155.494 58.2547 155.494 59.188C155.494 60.1213 155.681 60.9427 156.054 61.652C156.446 62.3427 156.95 62.8747 157.566 63.248C158.201 63.6213 158.873 63.808 159.582 63.808C160.31 63.808 160.992 63.6307 161.626 63.276C162.261 62.9027 162.765 62.38 163.138 61.708C163.512 61.0173 163.698 60.196 163.698 59.244ZM177.195 57.2C177.195 55.2773 177.624 53.56 178.483 52.048C179.36 50.5173 180.546 49.332 182.039 48.492C183.551 47.6333 185.24 47.204 187.107 47.204C189.291 47.204 191.204 47.764 192.847 48.884C194.49 50.004 195.638 51.5533 196.291 53.532H191.783C191.335 52.5987 190.7 51.8987 189.879 51.432C189.076 50.9653 188.143 50.732 187.079 50.732C185.94 50.732 184.923 51.0027 184.027 51.544C183.15 52.0667 182.459 52.8133 181.955 53.784C181.47 54.7547 181.227 55.8933 181.227 57.2C181.227 58.488 181.47 59.6267 181.955 60.616C182.459 61.5867 183.15 62.3427 184.027 62.884C184.923 63.4067 185.94 63.668 187.079 63.668C188.143 63.668 189.076 63.4347 189.879 62.968C190.7 62.4827 191.335 61.7733 191.783 60.84H196.291C195.638 62.8373 194.49 64.396 192.847 65.516C191.223 66.6173 189.31 67.168 187.107 67.168C185.24 67.168 183.551 66.748 182.039 65.908C180.546 65.0493 179.36 63.864 178.483 62.352C177.624 60.84 177.195 59.1227 177.195 57.2ZM208.375 51.264C209.551 51.264 210.596 51.5253 211.511 52.048C212.426 52.552 213.135 53.308 213.639 54.316C214.162 55.3053 214.423 56.5 214.423 57.9V67H210.503V58.432C210.503 57.2 210.195 56.2573 209.579 55.604C208.963 54.932 208.123 54.596 207.059 54.596C205.976 54.596 205.118 54.932 204.483 55.604C203.867 56.2573 203.559 57.2 203.559 58.432V67H199.639V46.28H203.559V53.42C204.063 52.748 204.735 52.2253 205.575 51.852C206.415 51.46 207.348 51.264 208.375 51.264ZM225.039 67.252C223.545 67.252 222.201 66.9253 221.007 66.272C219.812 65.6 218.869 64.6573 218.179 63.444C217.507 62.2307 217.171 60.8307 217.171 59.244C217.171 57.6573 217.516 56.2573 218.207 55.044C218.916 53.8307 219.877 52.8973 221.091 52.244C222.304 51.572 223.657 51.236 225.151 51.236C226.644 51.236 227.997 51.572 229.211 52.244C230.424 52.8973 231.376 53.8307 232.067 55.044C232.776 56.2573 233.131 57.6573 233.131 59.244C233.131 60.8307 232.767 62.2307 232.039 63.444C231.329 64.6573 230.359 65.6 229.127 66.272C227.913 66.9253 226.551 67.252 225.039 67.252ZM225.039 63.836C225.748 63.836 226.411 63.668 227.027 63.332C227.661 62.9773 228.165 62.4547 228.539 61.764C228.912 61.0733 229.099 60.2333 229.099 59.244C229.099 57.7693 228.707 56.64 227.923 55.856C227.157 55.0533 226.215 54.652 225.095 54.652C223.975 54.652 223.032 55.0533 222.267 55.856C221.52 56.64 221.147 57.7693 221.147 59.244C221.147 60.7187 221.511 61.8573 222.239 62.66C222.985 63.444 223.919 63.836 225.039 63.836ZM242.894 67.252C241.401 67.252 240.057 66.9253 238.862 66.272C237.668 65.6 236.725 64.6573 236.034 63.444C235.362 62.2307 235.026 60.8307 235.026 59.244C235.026 57.6573 235.372 56.2573 236.062 55.044C236.772 53.8307 237.733 52.8973 238.946 52.244C240.16 51.572 241.513 51.236 243.006 51.236C244.5 51.236 245.853 51.572 247.066 52.244C248.28 52.8973 249.232 53.8307 249.922 55.044C250.632 56.2573 250.986 57.6573 250.986 59.244C250.986 60.8307 250.622 62.2307 249.894 63.444C249.185 64.6573 248.214 65.6 246.982 66.272C245.769 66.9253 244.406 67.252 242.894 67.252ZM242.894 63.836C243.604 63.836 244.266 63.668 244.882 63.332C245.517 62.9773 246.021 62.4547 246.394 61.764C246.768 61.0733 246.954 60.2333 246.954 59.244C246.954 57.7693 246.562 56.64 245.778 55.856C245.013 55.0533 244.07 54.652 242.95 54.652C241.83 54.652 240.888 55.0533 240.122 55.856C239.376 56.64 239.002 57.7693 239.002 59.244C239.002 60.7187 239.366 61.8573 240.094 62.66C240.841 63.444 241.774 63.836 242.894 63.836ZM259.798 67.252C258.528 67.252 257.39 67.028 256.382 66.58C255.374 66.1133 254.571 65.488 253.974 64.704C253.395 63.92 253.078 63.052 253.022 62.1H256.97C257.044 62.6973 257.334 63.192 257.838 63.584C258.36 63.976 259.004 64.172 259.77 64.172C260.516 64.172 261.095 64.0227 261.506 63.724C261.935 63.4253 262.15 63.0427 262.15 62.576C262.15 62.072 261.888 61.6987 261.366 61.456C260.862 61.1947 260.05 60.9147 258.93 60.616C257.772 60.336 256.82 60.0467 256.074 59.748C255.346 59.4493 254.711 58.992 254.17 58.376C253.647 57.76 253.386 56.9293 253.386 55.884C253.386 55.0253 253.628 54.2413 254.114 53.532C254.618 52.8227 255.327 52.2627 256.242 51.852C257.175 51.4413 258.267 51.236 259.518 51.236C261.366 51.236 262.84 51.7027 263.942 52.636C265.043 53.5507 265.65 54.792 265.762 56.36H262.01C261.954 55.744 261.692 55.2587 261.226 54.904C260.778 54.5307 260.171 54.344 259.406 54.344C258.696 54.344 258.146 54.4747 257.754 54.736C257.38 54.9973 257.194 55.3613 257.194 55.828C257.194 56.3507 257.455 56.752 257.978 57.032C258.5 57.2933 259.312 57.564 260.414 57.844C261.534 58.124 262.458 58.4133 263.186 58.712C263.914 59.0107 264.539 59.4773 265.062 60.112C265.603 60.728 265.883 61.5493 265.902 62.576C265.902 63.472 265.65 64.2747 265.146 64.984C264.66 65.6933 263.951 66.2533 263.018 66.664C262.103 67.056 261.03 67.252 259.798 67.252ZM283.54 58.908C283.54 59.468 283.502 59.972 283.428 60.42H272.088C272.181 61.54 272.573 62.4173 273.264 63.052C273.954 63.6867 274.804 64.004 275.812 64.004C277.268 64.004 278.304 63.3787 278.92 62.128H283.148C282.7 63.6213 281.841 64.8533 280.572 65.824C279.302 66.776 277.744 67.252 275.896 67.252C274.402 67.252 273.058 66.9253 271.864 66.272C270.688 65.6 269.764 64.6573 269.092 63.444C268.438 62.2307 268.111 60.8307 268.111 59.244C268.111 57.6387 268.438 56.2293 269.092 55.016C269.745 53.8027 270.66 52.8693 271.836 52.216C273.012 51.5627 274.365 51.236 275.896 51.236C277.37 51.236 278.686 51.5533 279.844 52.188C281.02 52.8227 281.925 53.728 282.56 54.904C283.213 56.0613 283.54 57.396 283.54 58.908ZM279.48 57.788C279.461 56.78 279.097 55.9773 278.388 55.38C277.678 54.764 276.81 54.456 275.784 54.456C274.813 54.456 273.992 54.7547 273.32 55.352C272.666 55.9307 272.265 56.7427 272.116 57.788H279.48ZM296.937 47.456V59.552C296.937 60.8773 297.282 61.8947 297.973 62.604C298.663 63.2947 299.634 63.64 300.885 63.64C302.154 63.64 303.134 63.2947 303.825 62.604C304.515 61.8947 304.861 60.8773 304.861 59.552V47.456H308.809V59.524C308.809 61.1853 308.445 62.5947 307.717 63.752C307.007 64.8907 306.046 65.7493 304.833 66.328C303.638 66.9067 302.303 67.196 300.829 67.196C299.373 67.196 298.047 66.9067 296.853 66.328C295.677 65.7493 294.743 64.8907 294.053 63.752C293.362 62.5947 293.017 61.1853 293.017 59.524V47.456H296.937ZM318.532 67.252C317.263 67.252 316.124 67.028 315.116 66.58C314.108 66.1133 313.305 65.488 312.708 64.704C312.129 63.92 311.812 63.052 311.756 62.1H315.704C315.779 62.6973 316.068 63.192 316.572 63.584C317.095 63.976 317.739 64.172 318.504 64.172C319.251 64.172 319.829 64.0227 320.24 63.724C320.669 63.4253 320.884 63.0427 320.884 62.576C320.884 62.072 320.623 61.6987 320.1 61.456C319.596 61.1947 318.784 60.9147 317.664 60.616C316.507 60.336 315.555 60.0467 314.808 59.748C314.08 59.4493 313.445 58.992 312.904 58.376C312.381 57.76 312.12 56.9293 312.12 55.884C312.12 55.0253 312.363 54.2413 312.848 53.532C313.352 52.8227 314.061 52.2627 314.976 51.852C315.909 51.4413 317.001 51.236 318.252 51.236C320.1 51.236 321.575 51.7027 322.676 52.636C323.777 53.5507 324.384 54.792 324.496 56.36H320.744C320.688 55.744 320.427 55.2587 319.96 54.904C319.512 54.5307 318.905 54.344 318.14 54.344C317.431 54.344 316.88 54.4747 316.488 54.736C316.115 54.9973 315.928 55.3613 315.928 55.828C315.928 56.3507 316.189 56.752 316.712 57.032C317.235 57.2933 318.047 57.564 319.148 57.844C320.268 58.124 321.192 58.4133 321.92 58.712C322.648 59.0107 323.273 59.4773 323.796 60.112C324.337 60.728 324.617 61.5493 324.636 62.576C324.636 63.472 324.384 64.2747 323.88 64.984C323.395 65.6933 322.685 66.2533 321.752 66.664C320.837 67.056 319.764 67.252 318.532 67.252ZM333.314 46.784C335.255 46.784 336.814 47.316 337.99 48.38C339.185 49.4253 339.782 50.872 339.782 52.72C339.782 54.5493 339.194 55.9493 338.018 56.92C336.842 57.872 335.283 58.348 333.342 58.348L333.23 60.504H329.786L329.646 55.744H330.906C332.53 55.744 333.781 55.5293 334.658 55.1C335.535 54.6707 335.974 53.8867 335.974 52.748C335.974 51.9267 335.731 51.2733 335.246 50.788C334.779 50.3027 334.135 50.06 333.314 50.06C332.455 50.06 331.783 50.2933 331.298 50.76C330.831 51.2267 330.598 51.8707 330.598 52.692H326.902C326.883 51.5533 327.126 50.536 327.63 49.64C328.134 48.744 328.871 48.044 329.842 47.54C330.831 47.036 331.989 46.784 333.314 46.784ZM331.494 67.196C330.785 67.196 330.197 66.9813 329.73 66.552C329.282 66.104 329.058 65.5533 329.058 64.9C329.058 64.2467 329.282 63.7053 329.73 63.276C330.197 62.828 330.785 62.604 331.494 62.604C332.185 62.604 332.754 62.828 333.202 63.276C333.65 63.7053 333.874 64.2467 333.874 64.9C333.874 65.5533 333.65 66.104 333.202 66.552C332.754 66.9813 332.185 67.196 331.494 67.196Z" fill="#232631"/>
</svg>
