<svg width="58" height="58" viewBox="0 0 58 58" fill="none" xmlns="http://www.w3.org/2000/svg">
<path fill-rule="evenodd" clip-rule="evenodd" d="M49.2981 22.1014L51.0387 23.8414C52.4167 25.1947 53.1661 27.0314 53.1661 28.9647C53.1903 30.898 52.4409 32.7371 51.0871 34.1122C51.0709 34.1299 51.0548 34.1455 51.0387 34.161C51.0307 34.1688 51.0226 34.1766 51.0145 34.1847L49.2981 35.9005C48.6212 36.5772 48.2344 37.4955 48.2344 38.4646V40.9514C48.2344 44.963 44.9707 48.228 40.9575 48.228H38.4675C37.5005 48.228 36.5818 48.6122 35.9049 49.2889L34.1643 51.0289C32.7379 52.4571 30.8764 53.1555 29.0149 53.1555C27.1534 53.1555 25.2919 52.4571 23.8655 51.0555L22.1007 49.2889C21.4238 48.6122 20.5051 48.228 19.5381 48.228H17.048C13.0349 48.228 9.77124 44.963 9.77124 40.9514V38.4646C9.77124 37.4955 9.38444 36.5772 8.70753 35.8764L6.96689 34.1605C4.13837 31.3355 4.11419 26.7172 6.94272 23.868L8.70753 22.1014C9.38444 21.4247 9.77124 20.5064 9.77124 19.5155V17.0505C9.77124 13.0389 13.0349 9.77879 17.048 9.77879H19.5381C20.5051 9.77879 21.4238 9.3897 22.1007 8.71304L23.8413 6.97304C26.6699 4.12379 31.2874 4.12379 34.1401 6.95129L35.9049 8.71304C36.5818 9.3897 37.5005 9.77879 38.4675 9.77879H40.9575C44.9707 9.77879 48.2344 13.0389 48.2344 17.0505V19.5421C48.2344 20.5064 48.6212 21.4247 49.2981 22.1014ZM22.7776 37.3264C23.3578 37.3264 23.8897 37.1089 24.2765 36.6981L36.7027 24.2788C37.5246 23.4572 37.5246 22.1014 36.7027 21.2798C35.8807 20.4605 34.551 20.4605 33.7291 21.2798L21.3029 33.7014C20.4809 34.5231 20.4809 35.8764 21.3029 36.6981C21.6897 37.1089 22.2216 37.3264 22.7776 37.3264ZM33.1008 35.1997C33.1008 36.3839 34.0437 37.3264 35.2283 37.3264C36.3887 37.3264 37.3315 36.3839 37.3315 35.1997C37.3315 34.0421 36.3887 33.0972 35.2283 33.0972C34.0437 33.0972 33.1008 34.0421 33.1008 35.1997ZM22.8019 20.6755C23.9624 20.6755 24.9052 21.618 24.9052 22.778C24.9052 23.9646 23.9624 24.9047 22.8019 24.9047C21.6415 24.9047 20.6745 23.9646 20.6745 22.778C20.6745 21.618 21.6415 20.6755 22.8019 20.6755Z" fill="#2663FF"/>
</svg>
