<svg width="124" height="24" viewBox="0 0 124 24" fill="none" xmlns="http://www.w3.org/2000/svg">
<path d="M12.1048 6.832L8.00875 18H5.28875L1.19275 6.832H3.59275L6.66475 15.712L9.72075 6.832H12.1048ZM14.5838 8.08C14.1891 8.08 13.8584 7.95733 13.5918 7.712C13.3358 7.456 13.2078 7.14133 13.2078 6.768C13.2078 6.39467 13.3358 6.08533 13.5918 5.84C13.8584 5.584 14.1891 5.456 14.5838 5.456C14.9784 5.456 15.3038 5.584 15.5598 5.84C15.8264 6.08533 15.9598 6.39467 15.9598 6.768C15.9598 7.14133 15.8264 7.456 15.5598 7.712C15.3038 7.95733 14.9784 8.08 14.5838 8.08ZM15.6878 9.136V18H13.4478V9.136H15.6878ZM26.1409 13.376C26.1409 13.696 26.1195 13.984 26.0769 14.24H19.5969C19.6502 14.88 19.8742 15.3813 20.2689 15.744C20.6635 16.1067 21.1489 16.288 21.7249 16.288C22.5569 16.288 23.1489 15.9307 23.5009 15.216H25.9169C25.6609 16.0693 25.1702 16.7733 24.4449 17.328C23.7195 17.872 22.8289 18.144 21.7729 18.144C20.9195 18.144 20.1515 17.9573 19.4689 17.584C18.7969 17.2 18.2689 16.6613 17.8849 15.968C17.5115 15.2747 17.3249 14.4747 17.3249 13.568C17.3249 12.6507 17.5115 11.8453 17.8849 11.152C18.2582 10.4587 18.7809 9.92533 19.4529 9.552C20.1249 9.17867 20.8982 8.992 21.7729 8.992C22.6155 8.992 23.3675 9.17333 24.0289 9.536C24.7009 9.89867 25.2182 10.416 25.5809 11.088C25.9542 11.7493 26.1409 12.512 26.1409 13.376ZM23.8209 12.736C23.8102 12.16 23.6022 11.7013 23.1969 11.36C22.7915 11.008 22.2955 10.832 21.7089 10.832C21.1542 10.832 20.6849 11.0027 20.3009 11.344C19.9275 11.6747 19.6982 12.1387 19.6129 12.736H23.8209ZM40.0639 9.136L37.4719 18H35.0559L33.4399 11.808L31.8239 18H29.3919L26.7839 9.136H29.0559L30.6239 15.888L32.3199 9.136H34.6879L36.3519 15.872L37.9199 9.136H40.0639ZM48.9924 6.832C50.1657 6.832 51.195 7.06133 52.0804 7.52C52.9764 7.97867 53.6644 8.63467 54.1444 9.488C54.635 10.3307 54.8804 11.312 54.8804 12.432C54.8804 13.552 54.635 14.5333 54.1444 15.376C53.6644 16.208 52.9764 16.8533 52.0804 17.312C51.195 17.7707 50.1657 18 48.9924 18H45.0884V6.832H48.9924ZM48.9124 16.096C50.0857 16.096 50.9924 15.776 51.6324 15.136C52.2724 14.496 52.5924 13.5947 52.5924 12.432C52.5924 11.2693 52.2724 10.3627 51.6324 9.712C50.9924 9.05067 50.0857 8.72 48.9124 8.72H47.3284V16.096H48.9124ZM64.7971 13.376C64.7971 13.696 64.7758 13.984 64.7331 14.24H58.2531C58.3065 14.88 58.5305 15.3813 58.9251 15.744C59.3198 16.1067 59.8051 16.288 60.3811 16.288C61.2131 16.288 61.8051 15.9307 62.1571 15.216H64.5731C64.3171 16.0693 63.8265 16.7733 63.1011 17.328C62.3758 17.872 61.4851 18.144 60.4291 18.144C59.5758 18.144 58.8078 17.9573 58.1251 17.584C57.4531 17.2 56.9251 16.6613 56.5411 15.968C56.1678 15.2747 55.9811 14.4747 55.9811 13.568C55.9811 12.6507 56.1678 11.8453 56.5411 11.152C56.9145 10.4587 57.4371 9.92533 58.1091 9.552C58.7811 9.17867 59.5545 8.992 60.4291 8.992C61.2718 8.992 62.0238 9.17333 62.6851 9.536C63.3571 9.89867 63.8745 10.416 64.2371 11.088C64.6105 11.7493 64.7971 12.512 64.7971 13.376ZM62.4771 12.736C62.4665 12.16 62.2585 11.7013 61.8531 11.36C61.4478 11.008 60.9518 10.832 60.3651 10.832C59.8105 10.832 59.3411 11.0027 58.9571 11.344C58.5838 11.6747 58.3545 12.1387 58.2691 12.736H62.4771ZM69.0401 10.976V15.264C69.0401 15.5627 69.1095 15.7813 69.2481 15.92C69.3975 16.048 69.6428 16.112 69.9841 16.112H71.0241V18H69.6161C67.7281 18 66.7841 17.0827 66.7841 15.248V10.976H65.7281V9.136H66.7841V6.944H69.0401V9.136H71.0241V10.976H69.0401ZM72.0592 13.536C72.0592 12.64 72.2352 11.8453 72.5872 11.152C72.9499 10.4587 73.4353 9.92533 74.0433 9.552C74.6619 9.17867 75.3499 8.992 76.1073 8.992C76.7686 8.992 77.3446 9.12533 77.8353 9.392C78.3366 9.65867 78.7366 9.99467 79.0353 10.4V9.136H81.2913V18H79.0353V16.704C78.7473 17.12 78.3473 17.4667 77.8353 17.744C77.3339 18.0107 76.7526 18.144 76.0913 18.144C75.3446 18.144 74.6619 17.952 74.0433 17.568C73.4353 17.184 72.9499 16.6453 72.5872 15.952C72.2352 15.248 72.0592 14.4427 72.0592 13.536ZM79.0353 13.568C79.0353 13.024 78.9286 12.56 78.7153 12.176C78.5019 11.7813 78.2139 11.4827 77.8513 11.28C77.4886 11.0667 77.0993 10.96 76.6833 10.96C76.2673 10.96 75.8833 11.0613 75.5312 11.264C75.1793 11.4667 74.8913 11.7653 74.6673 12.16C74.4539 12.544 74.3473 13.0027 74.3473 13.536C74.3473 14.0693 74.4539 14.5387 74.6673 14.944C74.8913 15.3387 75.1793 15.6427 75.5312 15.856C75.8939 16.0693 76.2779 16.176 76.6833 16.176C77.0993 16.176 77.4886 16.0747 77.8513 15.872C78.2139 15.6587 78.5019 15.36 78.7153 14.976C78.9286 14.5813 79.0353 14.112 79.0353 13.568ZM84.615 8.08C84.2203 8.08 83.8897 7.95733 83.623 7.712C83.367 7.456 83.239 7.14133 83.239 6.768C83.239 6.39467 83.367 6.08533 83.623 5.84C83.8897 5.584 84.2203 5.456 84.615 5.456C85.0097 5.456 85.335 5.584 85.591 5.84C85.8577 6.08533 85.991 6.39467 85.991 6.768C85.991 7.14133 85.8577 7.456 85.591 7.712C85.335 7.95733 85.0097 8.08 84.615 8.08ZM85.719 9.136V18H83.479V9.136H85.719ZM90.1721 6.16V18H87.9321V6.16H90.1721ZM95.7773 18.144C95.0519 18.144 94.4013 18.016 93.8253 17.76C93.2493 17.4933 92.7906 17.136 92.4493 16.688C92.1186 16.24 91.9373 15.744 91.9053 15.2H94.1613C94.2039 15.5413 94.3693 15.824 94.6573 16.048C94.9559 16.272 95.3239 16.384 95.7613 16.384C96.1879 16.384 96.5186 16.2987 96.7533 16.128C96.9986 15.9573 97.1213 15.7387 97.1213 15.472C97.1213 15.184 96.9719 14.9707 96.6733 14.832C96.3853 14.6827 95.9213 14.5227 95.2812 14.352C94.6199 14.192 94.0759 14.0267 93.6493 13.856C93.2333 13.6853 92.8706 13.424 92.5613 13.072C92.2626 12.72 92.1133 12.2453 92.1133 11.648C92.1133 11.1573 92.2519 10.7093 92.5293 10.304C92.8173 9.89867 93.2226 9.57867 93.7453 9.344C94.2786 9.10933 94.9026 8.992 95.6173 8.992C96.6733 8.992 97.5159 9.25867 98.1453 9.792C98.7746 10.3147 99.1213 11.024 99.1853 11.92H97.0413C97.0093 11.568 96.8599 11.2907 96.5933 11.088C96.3373 10.8747 95.9906 10.768 95.5533 10.768C95.1479 10.768 94.8333 10.8427 94.6093 10.992C94.3959 11.1413 94.2893 11.3493 94.2893 11.616C94.2893 11.9147 94.4386 12.144 94.7373 12.304C95.0359 12.4533 95.4999 12.608 96.1293 12.768C96.7693 12.928 97.2973 13.0933 97.7133 13.264C98.1293 13.4347 98.4866 13.7013 98.7853 14.064C99.0946 14.416 99.2546 14.8853 99.2653 15.472C99.2653 15.984 99.1213 16.4427 98.8333 16.848C98.5559 17.2533 98.1506 17.5733 97.6173 17.808C97.0946 18.032 96.4813 18.144 95.7773 18.144Z" fill="#232631"/>
<path d="M110.226 8.335C109.926 8.045 109.926 7.575 110.216 7.275C110.366 7.125 110.556 7.055 110.756 7.055C110.946 7.055 111.136 7.125 111.276 7.275L114.766 10.745C114.906 10.885 114.986 11.075 114.986 11.275C114.986 11.475 114.906 11.665 114.766 11.805L111.276 15.275C110.986 15.575 110.516 15.575 110.216 15.275C109.926 14.985 109.926 14.505 110.226 14.215L113.176 11.275L110.226 8.335Z" fill="#232631"/>
</svg>
