<svg width="58" height="58" viewBox="0 0 58 58" fill="none" xmlns="http://www.w3.org/2000/svg">
<path d="M11.4427 46.5043C9.9523 45.0139 9.9523 42.5974 11.4427 41.107L31.5328 21.0169L36.9302 26.4142L16.8401 46.5043C15.3496 47.9948 12.9332 47.9948 11.4427 46.5043Z" fill="#2663FF"/>
<path d="M30.9332 20.4173C30.2708 19.7549 30.2708 18.6809 30.9332 18.0185L35.7308 13.2208L44.7264 22.2164L39.9288 27.0141C39.2663 27.6765 38.1924 27.6765 37.5299 27.0141L30.9332 20.4173Z" fill="#2663FF"/>
<rect x="33.3319" y="15.6196" width="11.0254" height="2.54433" transform="rotate(-45 33.3319 15.6196)" fill="#2663FF"/>
<rect x="36.9302" y="19.2179" width="11.0254" height="2.54433" transform="rotate(-45 36.9302 19.2179)" fill="#2663FF"/>
<rect x="40.5284" y="22.8162" width="11.0254" height="2.54433" transform="rotate(-45 40.5284 22.8162)" fill="#2663FF"/>
<path d="M13.7537 6.47609L12.5666 5.26997L11.7378 6.74538C10.2249 9.43859 8.66965 16.1341 14.1306 21.8743L26.9446 35.3435L27.8214 36.2652L28.7431 35.3884L29.5348 34.6352L41.71 48.1265C43.4088 50.0089 46.3028 50.1822 48.214 48.516C50.2318 46.7568 50.3501 43.6611 48.4723 41.7532L13.7537 6.47609Z" fill="#2663FF" stroke="#FFF4E7" stroke-width="2.54433"/>
</svg>
