<svg width="237" height="93" viewBox="0 0 237 93" fill="none" xmlns="http://www.w3.org/2000/svg">
<g filter="url(#filter0_d_241_613)">
<rect x="24.8584" y="16.6939" width="187.284" height="44.0013" rx="22.0007" fill="white" shape-rendering="crispEdges"/>
<path d="M56.9421 31.8839C57.3202 31.4481 57.6084 30.942 57.7903 30.3946C57.9722 29.8472 58.0442 29.2692 58.0021 28.6939C56.8415 28.7875 55.7641 29.3334 55.0021 30.2139C54.6372 30.6358 54.3607 31.1267 54.1889 31.6575C54.0171 32.1883 53.9536 32.7481 54.0021 33.3039C54.5683 33.3086 55.1279 33.183 55.6377 32.9367C56.1475 32.6905 56.5938 32.3302 56.9421 31.8839V31.8839ZM59.4621 39.3239C59.4688 38.5576 59.6707 37.8057 60.0486 37.1391C60.4265 36.4724 60.968 35.9131 61.6221 35.5139C61.2093 34.9191 60.6637 34.4287 60.0284 34.0815C59.3931 33.7344 58.6856 33.54 57.9621 33.5139C56.4021 33.3539 54.9621 34.4239 54.1321 34.4239C53.3021 34.4239 52.1321 33.5339 50.8321 33.5539C49.9822 33.5819 49.1541 33.8296 48.4286 34.273C47.703 34.7165 47.1047 35.3403 46.6921 36.0839C44.9321 39.1439 46.2421 43.6939 48.0021 46.1639C48.8021 47.3739 49.8021 48.7439 51.1221 48.6939C52.4421 48.6439 52.8721 47.8739 54.4021 47.8739C55.9321 47.8739 56.4021 48.6939 57.7021 48.6639C59.0021 48.6339 59.9221 47.4239 60.7621 46.2139C61.3572 45.3354 61.822 44.3754 62.1421 43.3639C61.3496 43.0259 60.6734 42.4631 60.1971 41.7452C59.7209 41.0272 59.4653 40.1854 59.4621 39.3239V39.3239Z" fill="black"/>
<path d="M80.8621 42.7785C80.2781 42.7785 79.7501 42.6785 79.2781 42.4785C78.8141 42.2785 78.4461 41.9905 78.1741 41.6145C77.9021 41.2385 77.7621 40.7945 77.7541 40.2825H79.5541C79.5781 40.6265 79.6981 40.8985 79.9141 41.0985C80.1381 41.2985 80.4421 41.3985 80.8261 41.3985C81.2181 41.3985 81.5261 41.3065 81.7501 41.1225C81.9741 40.9305 82.0861 40.6825 82.0861 40.3785C82.0861 40.1305 82.0101 39.9265 81.8581 39.7665C81.7061 39.6065 81.5141 39.4825 81.2821 39.3945C81.0581 39.2985 80.7461 39.1945 80.3461 39.0825C79.8021 38.9225 79.3581 38.7665 79.0141 38.6145C78.6781 38.4545 78.3861 38.2185 78.1381 37.9065C77.8981 37.5865 77.7781 37.1625 77.7781 36.6345C77.7781 36.1385 77.9021 35.7065 78.1501 35.3385C78.3981 34.9705 78.7461 34.6905 79.1941 34.4985C79.6421 34.2985 80.1541 34.1985 80.7301 34.1985C81.5941 34.1985 82.2941 34.4105 82.8301 34.8345C83.3741 35.2505 83.6741 35.8345 83.7301 36.5865H81.8821C81.8661 36.2985 81.7421 36.0625 81.5101 35.8785C81.2861 35.6865 80.9861 35.5905 80.6101 35.5905C80.2821 35.5905 80.0181 35.6745 79.8181 35.8425C79.6261 36.0105 79.5301 36.2545 79.5301 36.5745C79.5301 36.7985 79.6021 36.9865 79.7461 37.1385C79.8981 37.2825 80.0821 37.4025 80.2981 37.4985C80.5221 37.5865 80.8341 37.6905 81.2341 37.8105C81.7781 37.9705 82.2221 38.1305 82.5661 38.2905C82.9101 38.4505 83.2061 38.6905 83.4541 39.0105C83.7021 39.3305 83.8261 39.7505 83.8261 40.2705C83.8261 40.7185 83.7101 41.1345 83.4781 41.5185C83.2461 41.9025 82.9061 42.2105 82.4581 42.4425C82.0101 42.6665 81.4781 42.7785 80.8621 42.7785ZM86.1346 35.2545C85.8386 35.2545 85.5906 35.1625 85.3906 34.9785C85.1986 34.7865 85.1026 34.5505 85.1026 34.2705C85.1026 33.9905 85.1986 33.7585 85.3906 33.5745C85.5906 33.3825 85.8386 33.2865 86.1346 33.2865C86.4306 33.2865 86.6746 33.3825 86.8666 33.5745C87.0666 33.7585 87.1666 33.9905 87.1666 34.2705C87.1666 34.5505 87.0666 34.7865 86.8666 34.9785C86.6746 35.1625 86.4306 35.2545 86.1346 35.2545ZM86.9626 36.0465V42.6945H85.2826V36.0465H86.9626ZM91.2264 35.9385C91.7224 35.9385 92.1584 36.0385 92.5344 36.2385C92.9104 36.4305 93.2064 36.6825 93.4224 36.9945V36.0465H95.1144V42.7425C95.1144 43.3585 94.9904 43.9065 94.7424 44.3865C94.4944 44.8745 94.1224 45.2585 93.6264 45.5385C93.1304 45.8265 92.5304 45.9705 91.8264 45.9705C90.8824 45.9705 90.1064 45.7505 89.4984 45.3105C88.8984 44.8705 88.5584 44.2705 88.4784 43.5105H90.1464C90.2344 43.8145 90.4224 44.0545 90.7104 44.2305C91.0064 44.4145 91.3624 44.5065 91.7784 44.5065C92.2664 44.5065 92.6624 44.3585 92.9664 44.0625C93.2704 43.7745 93.4224 43.3345 93.4224 42.7425V41.7105C93.2064 42.0225 92.9064 42.2825 92.5224 42.4905C92.1464 42.6985 91.7144 42.8025 91.2264 42.8025C90.6664 42.8025 90.1544 42.6585 89.6904 42.3705C89.2264 42.0825 88.8584 41.6785 88.5864 41.1585C88.3224 40.6305 88.1904 40.0265 88.1904 39.3465C88.1904 38.6745 88.3224 38.0785 88.5864 37.5585C88.8584 37.0385 89.2224 36.6385 89.6784 36.3585C90.1424 36.0785 90.6584 35.9385 91.2264 35.9385ZM93.4224 39.3705C93.4224 38.9625 93.3424 38.6145 93.1824 38.3265C93.0224 38.0305 92.8064 37.8065 92.5344 37.6545C92.2624 37.4945 91.9704 37.4145 91.6584 37.4145C91.3464 37.4145 91.0584 37.4905 90.7944 37.6425C90.5304 37.7945 90.3144 38.0185 90.1464 38.3145C89.9864 38.6025 89.9064 38.9465 89.9064 39.3465C89.9064 39.7465 89.9864 40.0985 90.1464 40.4025C90.3144 40.6985 90.5304 40.9265 90.7944 41.0865C91.0664 41.2465 91.3544 41.3265 91.6584 41.3265C91.9704 41.3265 92.2624 41.2505 92.5344 41.0985C92.8064 40.9385 93.0224 40.7145 93.1824 40.4265C93.3424 40.1305 93.4224 39.7785 93.4224 39.3705ZM100.439 35.9505C101.231 35.9505 101.871 36.2025 102.359 36.7065C102.847 37.2025 103.091 37.8985 103.091 38.7945V42.6945H101.411V39.0225C101.411 38.4945 101.279 38.0905 101.015 37.8105C100.751 37.5225 100.391 37.3785 99.9352 37.3785C99.4712 37.3785 99.1032 37.5225 98.8312 37.8105C98.5672 38.0905 98.4352 38.4945 98.4352 39.0225V42.6945H96.7552V36.0465H98.4352V36.8745C98.6592 36.5865 98.9432 36.3625 99.2872 36.2025C99.6392 36.0345 100.023 35.9505 100.439 35.9505ZM113.824 36.0465V42.6945H112.132V41.8545C111.916 42.1425 111.632 42.3705 111.28 42.5385C110.936 42.6985 110.56 42.7785 110.152 42.7785C109.632 42.7785 109.172 42.6705 108.772 42.4545C108.372 42.2305 108.056 41.9065 107.824 41.4825C107.6 41.0505 107.488 40.5385 107.488 39.9465V36.0465H109.168V39.7065C109.168 40.2345 109.3 40.6425 109.564 40.9305C109.828 41.2105 110.188 41.3505 110.644 41.3505C111.108 41.3505 111.472 41.2105 111.736 40.9305C112 40.6425 112.132 40.2345 112.132 39.7065V36.0465H113.824ZM117.162 37.0065C117.378 36.7025 117.674 36.4505 118.05 36.2505C118.434 36.0425 118.87 35.9385 119.358 35.9385C119.926 35.9385 120.438 36.0785 120.894 36.3585C121.358 36.6385 121.722 37.0385 121.986 37.5585C122.258 38.0705 122.394 38.6665 122.394 39.3465C122.394 40.0265 122.258 40.6305 121.986 41.1585C121.722 41.6785 121.358 42.0825 120.894 42.3705C120.438 42.6585 119.926 42.8025 119.358 42.8025C118.87 42.8025 118.438 42.7025 118.062 42.5025C117.694 42.3025 117.394 42.0505 117.162 41.7465V45.8625H115.482V36.0465H117.162V37.0065ZM120.678 39.3465C120.678 38.9465 120.594 38.6025 120.426 38.3145C120.266 38.0185 120.05 37.7945 119.778 37.6425C119.514 37.4905 119.226 37.4145 118.914 37.4145C118.61 37.4145 118.322 37.4945 118.05 37.6545C117.786 37.8065 117.57 38.0305 117.402 38.3265C117.242 38.6225 117.162 38.9705 117.162 39.3705C117.162 39.7705 117.242 40.1185 117.402 40.4145C117.57 40.7105 117.786 40.9385 118.05 41.0985C118.322 41.2505 118.61 41.3265 118.914 41.3265C119.226 41.3265 119.514 41.2465 119.778 41.0865C120.05 40.9265 120.266 40.6985 120.426 40.4025C120.594 40.1065 120.678 39.7545 120.678 39.3465ZM135.69 36.0465L133.746 42.6945H131.934L130.722 38.0505L129.51 42.6945H127.686L125.73 36.0465H127.434L128.61 41.1105L129.882 36.0465H131.658L132.906 41.0985L134.082 36.0465H135.69ZM137.451 35.2545C137.155 35.2545 136.907 35.1625 136.707 34.9785C136.515 34.7865 136.419 34.5505 136.419 34.2705C136.419 33.9905 136.515 33.7585 136.707 33.5745C136.907 33.3825 137.155 33.2865 137.451 33.2865C137.747 33.2865 137.991 33.3825 138.183 33.5745C138.383 33.7585 138.483 33.9905 138.483 34.2705C138.483 34.5505 138.383 34.7865 138.183 34.9785C137.991 35.1625 137.747 35.2545 137.451 35.2545ZM138.279 36.0465V42.6945H136.599V36.0465H138.279ZM141.895 37.4265V40.6425C141.895 40.8665 141.947 41.0305 142.051 41.1345C142.163 41.2305 142.347 41.2785 142.603 41.2785H143.383V42.6945H142.327C140.911 42.6945 140.203 42.0065 140.203 40.6305V37.4265H139.411V36.0465H140.203V34.4025H141.895V36.0465H143.383V37.4265H141.895ZM148.335 35.9505C148.839 35.9505 149.287 36.0625 149.679 36.2865C150.071 36.5025 150.375 36.8265 150.591 37.2585C150.815 37.6825 150.927 38.1945 150.927 38.7945V42.6945H149.247V39.0225C149.247 38.4945 149.115 38.0905 148.851 37.8105C148.587 37.5225 148.227 37.3785 147.771 37.3785C147.307 37.3785 146.939 37.5225 146.667 37.8105C146.403 38.0905 146.271 38.4945 146.271 39.0225V42.6945H144.591V33.8145H146.271V36.8745C146.487 36.5865 146.775 36.3625 147.135 36.2025C147.495 36.0345 147.895 35.9505 148.335 35.9505ZM160.52 41.0985H157.184L156.632 42.6945H154.868L157.88 34.3065H159.836L162.848 42.6945H161.072L160.52 41.0985ZM160.064 39.7545L158.852 36.2505L157.64 39.7545H160.064ZM165.654 37.0065C165.87 36.7025 166.166 36.4505 166.542 36.2505C166.926 36.0425 167.362 35.9385 167.85 35.9385C168.418 35.9385 168.93 36.0785 169.386 36.3585C169.85 36.6385 170.214 37.0385 170.478 37.5585C170.75 38.0705 170.886 38.6665 170.886 39.3465C170.886 40.0265 170.75 40.6305 170.478 41.1585C170.214 41.6785 169.85 42.0825 169.386 42.3705C168.93 42.6585 168.418 42.8025 167.85 42.8025C167.362 42.8025 166.93 42.7025 166.554 42.5025C166.186 42.3025 165.886 42.0505 165.654 41.7465V45.8625H163.974V36.0465H165.654V37.0065ZM169.17 39.3465C169.17 38.9465 169.086 38.6025 168.918 38.3145C168.758 38.0185 168.542 37.7945 168.27 37.6425C168.006 37.4905 167.718 37.4145 167.406 37.4145C167.102 37.4145 166.814 37.4945 166.542 37.6545C166.278 37.8065 166.062 38.0305 165.894 38.3265C165.734 38.6225 165.654 38.9705 165.654 39.3705C165.654 39.7705 165.734 40.1185 165.894 40.4145C166.062 40.7105 166.278 40.9385 166.542 41.0985C166.814 41.2505 167.102 41.3265 167.406 41.3265C167.718 41.3265 168.006 41.2465 168.27 41.0865C168.542 40.9265 168.758 40.6985 168.918 40.4025C169.086 40.1065 169.17 39.7545 169.17 39.3465ZM173.787 37.0065C174.003 36.7025 174.299 36.4505 174.675 36.2505C175.059 36.0425 175.495 35.9385 175.983 35.9385C176.551 35.9385 177.063 36.0785 177.519 36.3585C177.983 36.6385 178.347 37.0385 178.611 37.5585C178.883 38.0705 179.019 38.6665 179.019 39.3465C179.019 40.0265 178.883 40.6305 178.611 41.1585C178.347 41.6785 177.983 42.0825 177.519 42.3705C177.063 42.6585 176.551 42.8025 175.983 42.8025C175.495 42.8025 175.063 42.7025 174.687 42.5025C174.319 42.3025 174.019 42.0505 173.787 41.7465V45.8625H172.107V36.0465H173.787V37.0065ZM177.303 39.3465C177.303 38.9465 177.219 38.6025 177.051 38.3145C176.891 38.0185 176.675 37.7945 176.403 37.6425C176.139 37.4905 175.851 37.4145 175.539 37.4145C175.235 37.4145 174.947 37.4945 174.675 37.6545C174.411 37.8065 174.195 38.0305 174.027 38.3265C173.867 38.6225 173.787 38.9705 173.787 39.3705C173.787 39.7705 173.867 40.1185 174.027 40.4145C174.195 40.7105 174.411 40.9385 174.675 41.0985C174.947 41.2505 175.235 41.3265 175.539 41.3265C175.851 41.3265 176.139 41.2465 176.403 41.0865C176.675 40.9265 176.891 40.6985 177.051 40.4025C177.219 40.1065 177.303 39.7545 177.303 39.3465ZM181.92 33.8145V42.6945H180.24V33.8145H181.92ZM189.759 39.2265C189.759 39.4665 189.743 39.6825 189.711 39.8745H184.851C184.891 40.3545 185.059 40.7305 185.355 41.0025C185.651 41.2745 186.015 41.4105 186.447 41.4105C187.071 41.4105 187.515 41.1425 187.779 40.6065H189.591C189.399 41.2465 189.031 41.7745 188.487 42.1905C187.943 42.5985 187.275 42.8025 186.483 42.8025C185.843 42.8025 185.267 42.6625 184.755 42.3825C184.251 42.0945 183.855 41.6905 183.567 41.1705C183.287 40.6505 183.147 40.0505 183.147 39.3705C183.147 38.6825 183.287 38.0785 183.567 37.5585C183.847 37.0385 184.239 36.6385 184.743 36.3585C185.247 36.0785 185.827 35.9385 186.483 35.9385C187.115 35.9385 187.679 36.0745 188.175 36.3465C188.679 36.6185 189.067 37.0065 189.339 37.5105C189.619 38.0065 189.759 38.5785 189.759 39.2265ZM188.019 38.7465C188.011 38.3145 187.855 37.9705 187.551 37.7145C187.247 37.4505 186.875 37.3185 186.435 37.3185C186.019 37.3185 185.667 37.4465 185.379 37.7025C185.099 37.9505 184.927 38.2985 184.863 38.7465H188.019Z" fill="#575964"/>
</g>
<defs>
<filter id="filter0_d_241_613" x="0.858398" y="0.693863" width="235.284" height="92.0013" filterUnits="userSpaceOnUse" color-interpolation-filters="sRGB">
<feFlood flood-opacity="0" result="BackgroundImageFix"/>
<feColorMatrix in="SourceAlpha" type="matrix" values="0 0 0 0 0 0 0 0 0 0 0 0 0 0 0 0 0 0 127 0" result="hardAlpha"/>
<feOffset dy="8"/>
<feGaussianBlur stdDeviation="12"/>
<feComposite in2="hardAlpha" operator="out"/>
<feColorMatrix type="matrix" values="0 0 0 0 0 0 0 0 0 0 0 0 0 0 0 0 0 0 0.15 0"/>
<feBlend mode="normal" in2="BackgroundImageFix" result="effect1_dropShadow_241_613"/>
<feBlend mode="normal" in="SourceGraphic" in2="effect1_dropShadow_241_613" result="shape"/>
</filter>
</defs>
</svg>
